<svg class="{{ class }}" width="103" height="36" viewBox="0 0 103 36" fill="none" xmlns="http://www.w3.org/2000/svg">
    <path d="M48 29.2891H49.2282V34.6473H51.0184V35.8352H48V29.2891Z" fill="#2B99F3"/>
    <path d="M52.2892 29C52.4992 29 52.679 29.0768 52.8297 29.2313C52.9803 29.3858 53.0552 29.5726 53.0552 29.7916C53.0552 30.0107 52.9803 30.1931 52.8322 30.3459C52.6834 30.4986 52.5052 30.5754 52.2986 30.5754C52.0921 30.5754 51.9044 30.4978 51.7538 30.3415C51.6041 30.1862 51.5283 29.9968 51.5283 29.7742C51.5283 29.5516 51.6023 29.3779 51.7512 29.2269C51.9001 29.0759 52.0792 29 52.2892 29ZM51.6901 30.9935H52.8882V35.835H51.6901V30.9935Z" fill="#2B99F3"/>
    <path d="M53.4061 30.9934H53.8322C53.8348 30.3589 53.8451 29.9836 53.8632 29.8675C53.895 29.6004 54.006 29.3892 54.1945 29.2329C54.383 29.0776 54.6498 28.999 54.9949 28.999C55.2437 28.999 55.5243 29.0566 55.8376 29.1727V30.0979C55.6646 30.0473 55.5234 30.022 55.4115 30.022C55.2712 30.022 55.1688 30.0516 55.1043 30.111C55.0578 30.1555 55.0337 30.2472 55.0337 30.3868L55.0294 30.9917H55.7885V32.0198H55.0294V35.8332H53.8313V32.0198H53.4053V30.9917L53.4061 30.9934Z" fill="#2B99F3"/>
    <path d="M61.2743 33.7655H57.4262C57.4821 34.1094 57.6301 34.3835 57.872 34.5869C58.113 34.7902 58.4211 34.8915 58.7955 34.8915C59.2431 34.8915 59.6278 34.7326 59.9497 34.4149L60.9593 34.8958C60.7079 35.2581 60.4067 35.5251 60.0555 35.6988C59.7044 35.8725 59.2878 35.9589 58.805 35.9589C58.0562 35.9589 57.446 35.7198 56.9752 35.2406C56.5044 34.7614 56.2686 34.1618 56.2686 33.4408C56.2686 32.7199 56.5035 32.0889 56.9726 31.6009C57.4425 31.113 58.0312 30.8687 58.7387 30.8687C59.4901 30.8687 60.102 31.113 60.5728 31.6009C61.0436 32.0889 61.2794 32.7339 61.2794 33.5342L61.2751 33.7655H61.2743ZM60.0762 32.8089C59.997 32.5392 59.8412 32.3193 59.608 32.1499C59.3747 31.9806 59.1045 31.896 58.7972 31.896C58.4633 31.896 58.1698 31.9911 57.9185 32.1805C57.7601 32.2992 57.6138 32.5087 57.4787 32.8081H60.0762V32.8089Z" fill="#2B99F3"/>
    <path d="M68.2774 30.1789L67.3676 30.9932C67.0483 30.542 66.723 30.3168 66.3916 30.3168C66.2307 30.3168 66.0981 30.3604 65.9957 30.4477C65.8933 30.535 65.8417 30.6336 65.8417 30.7436C65.8417 30.8536 65.8787 30.9574 65.9518 31.0552C66.0517 31.1861 66.352 31.4663 66.853 31.8966C67.322 32.2937 67.6061 32.5451 67.7059 32.649C67.9546 32.9038 68.1319 33.1482 68.2352 33.3812C68.3394 33.6143 68.391 33.8683 68.391 34.1441C68.391 34.6809 68.2077 35.1243 67.8419 35.4743C67.4761 35.8243 66.9984 35.9997 66.4097 35.9997C65.9501 35.9997 65.549 35.8854 65.2082 35.6567C64.8674 35.428 64.5747 35.0693 64.332 34.5796L65.3648 33.9477C65.6756 34.5264 66.0327 34.8153 66.4373 34.8153C66.6481 34.8153 66.8254 34.7533 66.9692 34.6285C67.1129 34.5037 67.1843 34.3597 67.1843 34.1965C67.1843 34.0481 67.1301 33.8997 67.0217 33.7513C66.9132 33.6029 66.6739 33.376 66.3047 33.0705C65.6015 32.4892 65.1471 32.0406 64.9423 31.7246C64.7374 31.4087 64.635 31.0936 64.635 30.7794C64.635 30.3255 64.8054 29.9362 65.1471 29.6115C65.4879 29.2869 65.9097 29.1245 66.4106 29.1245C66.7325 29.1245 67.0397 29.2004 67.3306 29.3514C67.6224 29.5024 67.9374 29.7783 68.2774 30.1789Z" fill="#2B99F3"/>
    <path d="M74.1041 31.9728L73.1066 32.5288C72.919 32.3297 72.7339 32.1918 72.5506 32.115C72.3673 32.0382 72.153 31.999 71.9068 31.999C71.4584 31.999 71.096 32.1342 70.8198 32.4057C70.5435 32.6771 70.4049 33.0236 70.4049 33.4478C70.4049 33.872 70.5383 34.1958 70.8043 34.4568C71.0711 34.7178 71.4205 34.8478 71.8543 34.8478C72.3905 34.8478 72.8079 34.6628 73.1066 34.2918L74.0516 34.9473C73.5395 35.6229 72.8174 35.9598 71.8836 35.9598C71.0444 35.9598 70.3868 35.7076 69.9109 35.2031C69.4358 34.6986 69.1982 34.1086 69.1982 33.4321C69.1982 32.9634 69.3136 32.5322 69.5451 32.1369C69.7758 31.7423 70.0985 31.4325 70.5125 31.2064C70.9265 30.9812 71.3895 30.8687 71.9016 30.8687C72.3759 30.8687 72.801 30.9647 73.1789 31.1558C73.5559 31.347 73.8648 31.6193 74.105 31.9728H74.1041Z" fill="#2B99F3"/>
    <path d="M75.6515 29C75.8615 29 76.0414 29.0768 76.192 29.2313C76.3426 29.3858 76.4175 29.5726 76.4175 29.7916C76.4175 30.0107 76.3426 30.1931 76.1946 30.3459C76.0457 30.4986 75.8675 30.5754 75.6609 30.5754C75.4544 30.5754 75.2667 30.4978 75.1161 30.3415C74.9664 30.1862 74.8906 29.9968 74.8906 29.7742C74.8906 29.5516 74.9646 29.3779 75.1135 29.2269C75.2624 29.0759 75.4415 29 75.6515 29ZM75.0524 30.9935H76.2505V35.835H75.0524V30.9935Z" fill="#2B99F3"/>
    <path d="M82.1219 33.7655H78.2738C78.3298 34.1094 78.4778 34.3835 78.7197 34.5869C78.9606 34.7902 79.2688 34.8915 79.6432 34.8915C80.0907 34.8915 80.4754 34.7326 80.7973 34.4149L81.8069 34.8958C81.5556 35.2581 81.2544 35.5251 80.9032 35.6988C80.552 35.8725 80.1355 35.9589 79.6526 35.9589C78.9038 35.9589 78.2936 35.7198 77.8228 35.2406C77.352 34.7614 77.1162 34.1618 77.1162 33.4408C77.1162 32.7199 77.3512 32.0889 77.8202 31.6009C78.2902 31.113 78.8789 30.8687 79.5864 30.8687C80.3377 30.8687 80.9497 31.113 81.4205 31.6009C81.8913 32.0889 82.1271 32.7339 82.1271 33.5342L82.1228 33.7655H82.1219ZM80.9239 32.8089C80.8447 32.5392 80.6889 32.3193 80.4556 32.1499C80.2224 31.9806 79.9521 31.896 79.6449 31.896C79.3109 31.896 79.0175 31.9911 78.7661 32.1805C78.6078 32.2992 78.4615 32.5087 78.3263 32.8081H80.9239V32.8089Z" fill="#2B99F3"/>
    <path d="M83.0918 30.9936H84.2899V31.4902C84.5618 31.258 84.808 31.0966 85.0283 31.0058C85.2487 30.915 85.4742 30.8696 85.7057 30.8696C86.1791 30.8696 86.5801 31.0372 86.9106 31.3724C87.1878 31.6569 87.3272 32.0785 87.3272 32.6362V35.836H86.142V33.7159C86.142 33.1381 86.1162 32.754 86.0654 32.5646C86.0147 32.3752 85.9252 32.2304 85.7986 32.1317C85.6713 32.0322 85.5146 31.9825 85.3278 31.9825C85.086 31.9825 84.8777 32.0645 84.7039 32.2295C84.53 32.3936 84.4095 32.6214 84.3424 32.912C84.3071 33.063 84.2899 33.3903 84.2899 33.8939V35.836H83.0918V30.9936Z" fill="#2B99F3"/>
    <path d="M93.1568 31.9728L92.1593 32.5288C91.9717 32.3297 91.7866 32.1918 91.6033 32.115C91.42 32.0382 91.2057 31.999 90.9595 31.999C90.5111 31.999 90.1488 32.1342 89.8725 32.4057C89.5954 32.6771 89.4576 33.0236 89.4576 33.4478C89.4576 33.872 89.5911 34.1958 89.857 34.4568C90.1238 34.7178 90.4732 34.8478 90.907 34.8478C91.4432 34.8478 91.8607 34.6628 92.1593 34.2918L93.1043 34.9473C92.5922 35.6229 91.8701 35.9598 90.9363 35.9598C90.0971 35.9598 89.4396 35.7076 88.9636 35.2031C88.4885 34.6986 88.251 34.1086 88.251 33.4321C88.251 32.9634 88.3663 32.5322 88.5978 32.1369C88.8285 31.7423 89.1512 31.4325 89.5652 31.2064C89.9792 30.9812 90.4423 30.8687 90.9544 30.8687C91.4286 30.8687 91.8538 30.9647 92.2316 31.1558C92.6086 31.347 92.9176 31.6193 93.1577 31.9728H93.1568Z" fill="#2B99F3"/>
    <path d="M99.0204 33.7655H95.1723C95.2282 34.1094 95.3762 34.3835 95.6181 34.5869C95.8591 34.7902 96.1672 34.8915 96.5416 34.8915C96.9892 34.8915 97.3739 34.7326 97.6958 34.4149L98.7054 34.8958C98.454 35.2581 98.1528 35.5251 97.8016 35.6988C97.4505 35.8725 97.0339 35.9589 96.5511 35.9589C95.8023 35.9589 95.1921 35.7198 94.7213 35.2406C94.2505 34.7614 94.0146 34.1618 94.0146 33.4408C94.0146 32.7199 94.2496 32.0889 94.7187 31.6009C95.1886 31.113 95.7773 30.8687 96.4848 30.8687C97.2362 30.8687 97.8481 31.113 98.3189 31.6009C98.7897 32.0889 99.0255 32.7339 99.0255 33.5342L99.0212 33.7655H99.0204ZM97.8223 32.8089C97.7431 32.5392 97.5873 32.3193 97.3541 32.1499C97.1208 31.9806 96.8506 31.896 96.5433 31.896C96.2094 31.896 95.9159 31.9911 95.6646 32.1805C95.5062 32.2992 95.3599 32.5087 95.2248 32.8081H97.8223V32.8089Z" fill="#2B99F3"/>
    <path d="M102.912 31.6698L102.17 32.4222C101.869 32.1193 101.595 31.9683 101.35 31.9683C101.216 31.9683 101.11 31.9971 101.034 32.0547C100.958 32.1123 100.92 32.1848 100.92 32.2703C100.92 32.3358 100.944 32.396 100.992 32.4501C101.04 32.5051 101.16 32.5801 101.35 32.6744L101.789 32.897C102.251 33.1283 102.569 33.3639 102.741 33.6048C102.913 33.8449 103 34.1268 103 34.4506C103 34.8809 102.844 35.2396 102.533 35.5277C102.221 35.8157 101.804 35.9597 101.279 35.9597C100.583 35.9597 100.027 35.6839 99.6123 35.1323L100.349 34.3179C100.489 34.4838 100.654 34.6182 100.843 34.7203C101.032 34.8224 101.199 34.8739 101.346 34.8739C101.504 34.8739 101.631 34.8355 101.728 34.7578C101.824 34.681 101.872 34.592 101.872 34.4907C101.872 34.304 101.699 34.1215 101.35 33.9435L100.946 33.7384C100.174 33.3439 99.7879 32.8498 99.7879 32.2563C99.7879 31.874 99.9333 31.5467 100.224 31.2753C100.515 31.0038 100.888 30.8677 101.341 30.8677C101.65 30.8677 101.942 30.9366 102.216 31.0745C102.49 31.2124 102.721 31.4106 102.911 31.6689L102.912 31.6698Z" fill="#2B99F3"/>
    <path d="M0.147461 0.812012H4.98996C7.69489 0.812012 9.52297 0.918207 10.4742 1.14273C11.9169 1.47346 13.0926 2.18041 13.9923 3.26057C14.901 4.34072 15.35 5.67726 15.35 7.25957C15.35 8.57487 15.0406 9.73998 14.4201 10.7458C13.7996 11.7516 12.9015 12.4995 11.747 13.0123C10.5925 13.5251 8.98896 13.783 6.9576 13.7936L15.702 25.0533H12.7012L3.95379 13.7921H2.57478V25.0533H0.147461V0.812012ZM2.57478 3.17409V11.4194H6.77403C8.40033 11.4543 9.59882 11.3041 10.3801 10.9946C11.1614 10.6836 11.7713 10.1921 12.1991 9.51849C12.6375 8.84491 12.8514 8.08486 12.8514 7.25047C12.8514 6.41608 12.6269 5.6985 12.1885 5.03554C11.75 4.37258 11.1614 3.89015 10.4453 3.61253C9.72777 3.32428 8.5308 3.18471 6.86202 3.18471H2.60512V3.17409H2.57781H2.57478Z" fill="white"/>
    <path d="M20.4355 0.784668H22.8629V22.7079H32.2156V25.0533H20.4355V0.784668Z" fill="white"/>
    <path d="M36.0054 25.0533V0.784668H41.0557C44.6936 0.784668 47.3364 1.07291 48.9839 1.66154C51.349 2.48531 53.1892 3.91894 54.5167 5.95182C55.8441 7.98469 56.5071 10.4135 56.5071 13.2277C56.5071 15.6565 55.9822 17.7971 54.9233 19.6479C53.875 21.4988 52.5051 22.8581 50.815 23.7349C49.1356 24.6118 46.7705 25.0518 43.7424 25.0518H36.0054V25.0533ZM38.3508 22.7625H41.1634C44.5222 22.7625 46.854 22.5486 48.1586 22.1314C49.9882 21.5428 51.431 20.4732 52.4793 18.9228C53.5276 17.383 54.0509 15.4896 54.0509 13.2641C54.0509 10.9217 53.4836 8.92073 52.3503 7.26408C51.2171 5.60592 49.6332 4.47267 47.6019 3.85219C46.0833 3.39251 43.5695 3.15737 40.0726 3.15737H38.3508V22.7625Z" fill="white"/>
    <path d="M64.9175 8.06494L72.8715 25.0531H71.0328L68.3551 19.4627H61.0095L58.3531 25.0531H56.4507L64.5003 8.06494H64.9175ZM64.7036 11.6756L61.7832 17.8273H67.6027L64.7036 11.6756Z" fill="white"/>
    <path d="M72.762 9.72769V8.09229H82.1147V9.72769H78.2978V25.0516H76.5531V9.72769H72.7635H72.762Z" fill="white"/>
    <path d="M85.4419 8.06494H87.1319V25.0531H85.4419V8.06494Z" fill="white"/>
    <path d="M90.4492 8.06494H92.4396L96.5175 14.6809L100.617 8.06494H102.586L97.5006 16.2753L102.917 25.0531H100.926L96.5054 17.8819L92.0634 25.0531H90.073L95.5223 16.286L90.4477 8.06494H90.4492Z" fill="white"/>
</svg>
