<svg class="{{ class }}" viewBox="0 0 280 70" fill="none" xmlns="http://www.w3.org/2000/svg">
<path d="M174.521 56.1707H176.876V66.4467H180.31V68.7249H174.521V56.1707Z" fill="#2B99F3"/>
<path d="M182.747 55.6165C183.15 55.6165 183.495 55.7638 183.784 56.06C184.073 56.3563 184.217 56.7145 184.217 57.1347C184.217 57.5548 184.073 57.9047 183.789 58.1976C183.503 58.4905 183.162 58.6378 182.766 58.6378C182.369 58.6378 182.01 58.4889 181.721 58.1892C181.434 57.8913 181.288 57.528 181.288 57.1012C181.288 56.6744 181.43 56.3413 181.716 56.0517C182.001 55.7621 182.345 55.6165 182.747 55.6165ZM181.599 59.4396H183.896V68.7248H181.599V59.4396Z" fill="#2B99F3"/>
<path d="M184.89 59.4396H185.707C185.712 58.2227 185.731 57.5029 185.766 57.2803C185.827 56.7681 186.04 56.363 186.402 56.0634C186.763 55.7654 187.275 55.6147 187.937 55.6147C188.414 55.6147 188.952 55.7252 189.553 55.9479V57.7222C189.221 57.6251 188.95 57.5766 188.736 57.5766C188.466 57.5766 188.27 57.6335 188.146 57.7473C188.057 57.8327 188.011 58.0084 188.011 58.2762L188.003 59.4363H189.459V61.4081H188.003V68.7214H185.705V61.4081H184.888V59.4363L184.89 59.4396Z" fill="#2B99F3"/>
<path d="M199.979 64.7559H192.599C192.706 65.4154 192.99 65.941 193.454 66.331C193.916 66.721 194.507 66.9152 195.225 66.9152C196.083 66.9152 196.821 66.6105 197.438 66.0012L199.375 66.9236C198.893 67.6182 198.315 68.1304 197.641 68.4636C196.968 68.7967 196.169 68.9624 195.243 68.9624C193.807 68.9624 192.637 68.5037 191.734 67.5848C190.831 66.6658 190.379 65.5158 190.379 64.1332C190.379 62.7505 190.829 61.5403 191.729 60.6046C192.63 59.6689 193.759 59.2002 195.116 59.2002C196.557 59.2002 197.731 59.6689 198.633 60.6046C199.536 61.5403 199.989 62.7773 199.989 64.3123L199.98 64.7559H199.979ZM197.681 62.9213C197.529 62.404 197.23 61.9822 196.783 61.6575C196.336 61.3327 195.817 61.1704 195.228 61.1704C194.588 61.1704 194.025 61.3528 193.543 61.7161C193.239 61.9437 192.959 62.3455 192.699 62.9196H197.681V62.9213Z" fill="#2B99F3"/>
<path d="M213.41 57.877L211.665 59.4388C211.053 58.5734 210.429 58.1415 209.793 58.1415C209.485 58.1415 209.231 58.2252 209.034 58.3926C208.838 58.56 208.739 58.7492 208.739 58.9601C208.739 59.171 208.81 59.3702 208.95 59.5576C209.141 59.8087 209.718 60.346 210.678 61.1713C211.578 61.9329 212.122 62.415 212.314 62.6142C212.791 63.103 213.131 63.5717 213.329 64.0186C213.529 64.4655 213.628 64.9526 213.628 65.4816C213.628 66.511 213.276 67.3614 212.575 68.0326C211.873 68.7038 210.957 69.0403 209.828 69.0403C208.947 69.0403 208.177 68.821 207.524 68.3824C206.87 67.9439 206.309 67.2559 205.844 66.3168L207.824 65.1049C208.42 66.2147 209.105 66.7688 209.881 66.7688C210.285 66.7688 210.625 66.65 210.901 66.4106C211.177 66.1712 211.314 65.895 211.314 65.582C211.314 65.2974 211.21 65.0129 211.002 64.7283C210.794 64.4438 210.335 64.0085 209.627 63.4227C208.278 62.3079 207.407 61.4475 207.014 60.8415C206.621 60.2356 206.425 59.6313 206.425 59.0287C206.425 58.1583 206.751 57.4117 207.407 56.789C208.06 56.1663 208.869 55.855 209.83 55.855C210.447 55.855 211.036 56.0006 211.594 56.2902C212.154 56.5798 212.758 57.1087 213.41 57.877Z" fill="#2B99F3"/>
<path d="M224.583 61.3177L222.67 62.384C222.31 62.0023 221.955 61.7378 221.604 61.5905C221.252 61.4432 220.841 61.3679 220.369 61.3679C219.509 61.3679 218.814 61.6273 218.284 62.1479C217.754 62.6685 217.489 63.3331 217.489 64.1466C217.489 64.9601 217.745 65.5811 218.255 66.0816C218.766 66.5821 219.436 66.8315 220.268 66.8315C221.297 66.8315 222.097 66.4766 222.67 65.7652L224.482 67.0223C223.5 68.3179 222.115 68.964 220.324 68.964C218.715 68.964 217.454 68.4803 216.541 67.5128C215.63 66.5453 215.175 65.4137 215.175 64.1164C215.175 63.2176 215.396 62.3906 215.84 61.6324C216.282 60.8758 216.901 60.2815 217.695 59.848C218.489 59.4161 219.377 59.2002 220.359 59.2002C221.269 59.2002 222.084 59.3843 222.809 59.7509C223.532 60.1175 224.124 60.6397 224.585 61.3177H224.583Z" fill="#2B99F3"/>
<path d="M227.552 55.6165C227.955 55.6165 228.3 55.7638 228.589 56.06C228.877 56.3563 229.021 56.7145 229.021 57.1347C229.021 57.5548 228.877 57.9047 228.593 58.1976C228.308 58.4905 227.966 58.6378 227.57 58.6378C227.174 58.6378 226.814 58.4889 226.525 58.1892C226.238 57.8913 226.093 57.528 226.093 57.1012C226.093 56.6744 226.235 56.3413 226.52 56.0517C226.806 55.7621 227.149 55.6165 227.552 55.6165ZM226.403 59.4396H228.701V68.7248H226.403V59.4396Z" fill="#2B99F3"/>
<path d="M239.961 64.7559H232.581C232.688 65.4154 232.972 65.941 233.436 66.331C233.898 66.721 234.489 66.9152 235.207 66.9152C236.065 66.9152 236.803 66.6105 237.42 66.0012L239.356 66.9236C238.874 67.6182 238.297 68.1304 237.623 68.4636C236.95 68.7967 236.151 68.9624 235.225 68.9624C233.789 68.9624 232.619 68.5037 231.716 67.5848C230.813 66.6658 230.361 65.5158 230.361 64.1332C230.361 62.7505 230.811 61.5403 231.711 60.6046C232.612 59.6689 233.741 59.2002 235.098 59.2002C236.539 59.2002 237.712 59.6689 238.615 60.6046C239.518 61.5403 239.971 62.7773 239.971 64.3123L239.962 64.7559H239.961ZM237.663 62.9213C237.511 62.404 237.212 61.9822 236.765 61.6575C236.318 61.3327 235.799 61.1704 235.21 61.1704C234.57 61.1704 234.007 61.3528 233.525 61.7161C233.221 61.9437 232.941 62.3455 232.681 62.9196H237.663V62.9213Z" fill="#2B99F3"/>
<path d="M241.82 59.4398H244.118V60.3923C244.64 59.947 245.112 59.6374 245.534 59.4633C245.957 59.2892 246.389 59.2021 246.833 59.2021C247.741 59.2021 248.51 59.5235 249.144 60.1663C249.676 60.712 249.943 61.5205 249.943 62.5901V68.7266H247.67V64.6607C247.67 63.5526 247.621 62.8161 247.523 62.4529C247.426 62.0896 247.254 61.8118 247.012 61.6226C246.767 61.4318 246.467 61.3364 246.109 61.3364C245.645 61.3364 245.245 61.4937 244.912 61.8101C244.578 62.1248 244.347 62.5617 244.219 63.1191C244.151 63.4087 244.118 64.0364 244.118 65.0022V68.7266H241.82V59.4398Z" fill="#2B99F3"/>
<path d="M261.123 61.3177L259.21 62.384C258.85 62.0023 258.495 61.7378 258.143 61.5905C257.792 61.4432 257.381 61.3679 256.909 61.3679C256.049 61.3679 255.354 61.6273 254.824 62.1479C254.292 62.6685 254.028 63.3331 254.028 64.1466C254.028 64.9601 254.284 65.5811 254.794 66.0816C255.306 66.5821 255.976 66.8315 256.808 66.8315C257.836 66.8315 258.637 66.4766 259.21 65.7652L261.022 67.0223C260.04 68.3179 258.655 68.964 256.864 68.964C255.255 68.964 253.994 68.4803 253.081 67.5128C252.17 66.5453 251.714 65.4137 251.714 64.1164C251.714 63.2176 251.935 62.3906 252.379 61.6324C252.822 60.8758 253.441 60.2815 254.235 59.848C255.029 59.4161 255.917 59.2002 256.899 59.2002C257.808 59.2002 258.624 59.3843 259.348 59.7509C260.071 60.1175 260.664 60.6397 261.124 61.3177H261.123Z" fill="#2B99F3"/>
<path d="M272.369 64.7559H264.989C265.096 65.4154 265.38 65.941 265.844 66.331C266.306 66.721 266.897 66.9152 267.615 66.9152C268.473 66.9152 269.211 66.6105 269.829 66.0012L271.765 66.9236C271.283 67.6182 270.705 68.1304 270.032 68.4636C269.358 68.7967 268.559 68.9624 267.633 68.9624C266.197 68.9624 265.027 68.5037 264.124 67.5848C263.221 66.6658 262.769 65.5158 262.769 64.1332C262.769 62.7505 263.219 61.5403 264.119 60.6046C265.02 59.6689 266.149 59.2002 267.506 59.2002C268.947 59.2002 270.121 59.6689 271.024 60.6046C271.926 61.5403 272.379 62.7773 272.379 64.3123L272.37 64.7559H272.369ZM270.071 62.9213C269.919 62.404 269.621 61.9822 269.173 61.6575C268.726 61.3327 268.208 61.1704 267.618 61.1704C266.978 61.1704 266.415 61.3528 265.933 61.7161C265.629 61.9437 265.349 62.3455 265.09 62.9196H270.071V62.9213Z" fill="#2B99F3"/>
<path d="M279.832 60.737L278.409 62.1799C277.831 61.5991 277.306 61.3095 276.836 61.3095C276.578 61.3095 276.375 61.3648 276.23 61.4752C276.085 61.5857 276.01 61.7246 276.01 61.8887C276.01 62.0142 276.057 62.1297 276.149 62.2335C276.242 62.339 276.471 62.4829 276.836 62.6637L277.678 63.0905C278.564 63.5341 279.173 63.9861 279.503 64.4481C279.833 64.9084 280 65.4491 280 66.0701C280 66.8953 279.701 67.5833 279.104 68.1357C278.506 68.6881 277.706 68.9643 276.7 68.9643C275.365 68.9643 274.299 68.4353 273.503 67.3774L274.916 65.8157C275.185 66.1337 275.5 66.3915 275.864 66.5873C276.225 66.7832 276.547 66.8819 276.828 66.8819C277.131 66.8819 277.374 66.8083 277.56 66.6593C277.745 66.512 277.838 66.3413 277.838 66.1471C277.838 65.7889 277.504 65.439 276.836 65.0976L276.062 64.7042C274.581 63.9476 273.84 63.0002 273.84 61.8619C273.84 61.1287 274.119 60.501 274.677 59.9804C275.235 59.4599 275.949 59.1987 276.818 59.1987C277.412 59.1987 277.971 59.331 278.496 59.5954C279.021 59.8599 279.465 60.2399 279.83 60.7354L279.832 60.737Z" fill="#2B99F3"/>
<path d="M82.7473 1.55713H92.0343C97.2219 1.55713 100.728 1.76079 102.552 2.19139C105.319 2.82565 107.574 4.18146 109.299 6.25299C111.042 8.32453 111.903 10.8878 111.903 13.9223C111.903 16.4448 111.309 18.6793 110.119 20.6083C108.93 22.5372 107.207 23.9716 104.993 24.955C102.779 25.9384 99.7036 26.433 95.8079 26.4534L112.578 48.0473H106.823L90.0471 26.4504H87.4024V48.0473H82.7473V1.55713ZM87.4024 6.08715V21.9001H95.4558C98.5747 21.967 100.873 21.6789 102.372 21.0854C103.87 20.489 105.04 19.5463 105.86 18.2545C106.701 16.9627 107.111 15.5051 107.111 13.9049C107.111 12.3047 106.68 10.9285 105.84 9.65706C104.999 8.38562 103.87 7.46042 102.497 6.92799C101.121 6.37519 98.825 6.10752 95.6246 6.10752H87.4606V6.08715H87.4083H87.4024Z" fill="white"/>
<path d="M121.657 1.50513H126.312V43.5497H144.249V48.0477H121.657V1.50513Z" fill="white"/>
<path d="M151.518 48.0477V1.50513H161.204C168.181 1.50513 173.249 2.05792 176.408 3.18679C180.944 4.76663 184.473 7.51606 187.019 11.4147C189.565 15.3134 190.836 19.9714 190.836 25.3685C190.836 30.0265 189.83 34.1318 187.799 37.6813C185.789 41.2308 183.161 43.8377 179.92 45.5194C176.699 47.201 172.164 48.0448 166.356 48.0448H151.518V48.0477ZM156.016 43.6544H161.41C167.852 43.6544 172.324 43.2442 174.826 42.4441C178.335 41.3152 181.101 39.2641 183.112 36.2906C185.122 33.3375 186.126 29.7065 186.126 25.4383C186.126 20.9461 185.038 17.1085 182.865 13.9314C180.691 10.7514 177.654 8.57802 173.758 7.38805C170.846 6.50648 166.025 6.05552 159.318 6.05552H156.016V43.6544Z" fill="white"/>
<path d="M206.964 15.4673L222.219 48.0474H218.692L213.557 37.326H199.469L194.375 48.0474H190.727L206.164 15.4673H206.964ZM206.554 22.3918L200.953 34.1896H212.114L206.554 22.3918Z" fill="white"/>
<path d="M222.003 18.6559V15.5195H239.939V18.6559H232.619V48.0443H229.273V18.6559H222.006H222.003Z" fill="white"/>
<path d="M246.326 15.4673H249.567V48.0474H246.326V15.4673Z" fill="white"/>
<path d="M255.929 15.4673H259.746L267.567 28.1554L275.428 15.4673H279.205L269.452 31.2133L279.839 48.0474H276.022L267.544 34.2944L259.025 48.0474H255.208L265.658 31.2336L255.926 15.4673H255.929Z" fill="white"/>
<path d="M50.9725 0H38.9131V4.71397H51.2682C53.5917 4.71397 55.4669 6.60748 55.4669 8.90958V39.0412C55.4669 41.3646 53.5734 43.2398 51.2682 43.2398H47.6519L45.3925 38.2453C44.3162 35.8548 41.9257 34.3058 39.3004 34.3058H21.1244C18.5906 34.3058 16.2489 35.7664 15.1542 38.041L12.6204 43.2368H8.91263C6.58919 43.2368 4.71397 41.3433 4.71397 39.0442V8.90653C4.71397 6.58614 6.60748 4.71397 8.91263 4.71397H21.2677V0H9.22365C4.14988 0 0 4.12853 0 9.22059V38.7332C0 43.807 4.12853 47.9538 9.22365 47.9538H26.0884V59.4521L54.049 47.4354C54.3936 47.3074 54.7381 47.1549 55.0613 47.0055L55.104 46.9842C58.2446 45.3925 60.1809 42.255 60.1809 38.7728V9.22059C60.1809 4.14683 56.0523 0 50.9755 0H50.9725Z" fill="#F4511E"/>
<path d="M30.2195 29.1404C34.22 29.1404 37.4673 25.8931 37.4673 21.8926C37.4673 17.8921 34.22 14.6448 30.2195 14.6448C26.219 14.6448 22.9717 17.8921 22.9717 21.8926C22.9717 25.8931 26.219 29.1404 30.2195 29.1404Z" fill="#F4511E"/>
</svg>