<svg class="{{ class }}" viewBox="0 0 968 631" fill="none" xmlns="http://www.w3.org/2000/svg">
    <path fill-rule="evenodd" clip-rule="evenodd" d="M605.609 526.961H725.75L788 419.14L727.956 315.14L785.402 215.64L905.75 215.64L968 107.82L905.75 5.44207e-06L781.25 0L721.598 103.32L605.402 103.32L545.75 5.44207e-06L421.25 0L361.598 103.32L241.25 103.32L179 211.14L239.044 315.14L181.391 415H62.25L0 522.82L62.25 630.64H186.75L246.609 526.961H361.391L421.25 630.64H545.75L605.609 526.961ZM598.707 107.725L541.391 207L425.609 207L368.293 107.725L425.869 8L541.131 8.00001L598.707 107.725ZM541.501 215.64L425.499 215.64L368.238 314.82L425.869 414.64H541.131L598.762 314.82L541.501 215.64ZM188.689 418.359L246.772 518.961H361.131L418.762 419.14L361.131 319.32H245.869L188.689 418.359ZM66.8688 423H181.228L239.311 523.602L182.131 622.64H66.8688L9.23761 522.82L66.8688 423ZM418.707 211.236L361.021 111.32L245.869 111.32L188.238 211.14L245.869 310.961H361.131L418.707 211.236ZM785.979 207.64L728.293 107.725L785.869 8L901.131 8.00001L958.762 107.82L901.131 207.64L785.979 207.64ZM721.021 111.32L605.979 111.32L548.293 211.236L605.869 310.961H721.131L778.707 211.236L721.021 111.32ZM721.131 319.32L778.762 419.14L721.131 518.961H605.869L548.238 419.14L605.869 319.32H721.131ZM541.131 423L598.762 522.82L541.131 622.64H425.869L368.238 522.82L425.869 423H541.131Z" fill="currentColor"/>
    <path fill-rule="evenodd" clip-rule="evenodd" d="M605.609 526.961H725.75L788 419.14L727.956 315.14L785.402 215.64L905.75 215.64L968 107.82L905.75 5.44207e-06L781.25 0L721.598 103.32L605.402 103.32L545.75 5.44207e-06L421.25 0L361.598 103.32L241.25 103.32L179 211.14L239.044 315.14L181.391 415H62.25L0 522.82L62.25 630.64H186.75L246.609 526.961H361.391L421.25 630.64H545.75L605.609 526.961ZM598.707 107.725L541.391 207L425.609 207L368.293 107.725L425.869 8L541.131 8.00001L598.707 107.725ZM541.501 215.64L425.499 215.64L368.238 314.82L425.869 414.64H541.131L598.762 314.82L541.501 215.64ZM188.689 418.359L246.772 518.961H361.131L418.762 419.14L361.131 319.32H245.869L188.689 418.359ZM66.8688 423H181.228L239.311 523.602L182.131 622.64H66.8688L9.23761 522.82L66.8688 423ZM418.707 211.236L361.021 111.32L245.869 111.32L188.238 211.14L245.869 310.961H361.131L418.707 211.236ZM785.979 207.64L728.293 107.725L785.869 8L901.131 8.00001L958.762 107.82L901.131 207.64L785.979 207.64ZM721.021 111.32L605.979 111.32L548.293 211.236L605.869 310.961H721.131L778.707 211.236L721.021 111.32ZM721.131 319.32L778.762 419.14L721.131 518.961H605.869L548.238 419.14L605.869 319.32H721.131ZM541.131 423L598.762 522.82L541.131 622.64H425.869L368.238 522.82L425.869 423H541.131Z" fill="currentColor"/>
    <path fill-rule="evenodd" clip-rule="evenodd" d="M605.609 526.961H725.75L788 419.14L727.956 315.14L785.402 215.64L905.75 215.64L968 107.82L905.75 5.44207e-06L781.25 0L721.598 103.32L605.402 103.32L545.75 5.44207e-06L421.25 0L361.598 103.32L241.25 103.32L179 211.14L239.044 315.14L181.391 415H62.25L0 522.82L62.25 630.64H186.75L246.609 526.961H361.391L421.25 630.64H545.75L605.609 526.961ZM598.707 107.725L541.391 207L425.609 207L368.293 107.725L425.869 8L541.131 8.00001L598.707 107.725ZM541.501 215.64L425.499 215.64L368.238 314.82L425.869 414.64H541.131L598.762 314.82L541.501 215.64ZM188.689 418.359L246.772 518.961H361.131L418.762 419.14L361.131 319.32H245.869L188.689 418.359ZM66.8688 423H181.228L239.311 523.602L182.131 622.64H66.8688L9.23761 522.82L66.8688 423ZM418.707 211.236L361.021 111.32L245.869 111.32L188.238 211.14L245.869 310.961H361.131L418.707 211.236ZM785.979 207.64L728.293 107.725L785.869 8L901.131 8.00001L958.762 107.82L901.131 207.64L785.979 207.64ZM721.021 111.32L605.979 111.32L548.293 211.236L605.869 310.961H721.131L778.707 211.236L721.021 111.32ZM721.131 319.32L778.762 419.14L721.131 518.961H605.869L548.238 419.14L605.869 319.32H721.131ZM541.131 423L598.762 522.82L541.131 622.64H425.869L368.238 522.82L425.869 423H541.131Z" fill="currentColor"/>
    <path fill-rule="evenodd" clip-rule="evenodd" d="M605.609 526.961H725.75L788 419.14L727.956 315.14L785.402 215.64L905.75 215.64L968 107.82L905.75 5.44207e-06L781.25 0L721.598 103.32L605.402 103.32L545.75 5.44207e-06L421.25 0L361.598 103.32L241.25 103.32L179 211.14L239.044 315.14L181.391 415H62.25L0 522.82L62.25 630.64H186.75L246.609 526.961H361.391L421.25 630.64H545.75L605.609 526.961ZM598.707 107.725L541.391 207L425.609 207L368.293 107.725L425.869 8L541.131 8.00001L598.707 107.725ZM541.501 215.64L425.499 215.64L368.238 314.82L425.869 414.64H541.131L598.762 314.82L541.501 215.64ZM188.689 418.359L246.772 518.961H361.131L418.762 419.14L361.131 319.32H245.869L188.689 418.359ZM66.8688 423H181.228L239.311 523.602L182.131 622.64H66.8688L9.23761 522.82L66.8688 423ZM418.707 211.236L361.021 111.32L245.869 111.32L188.238 211.14L245.869 310.961H361.131L418.707 211.236ZM785.979 207.64L728.293 107.725L785.869 8L901.131 8.00001L958.762 107.82L901.131 207.64L785.979 207.64ZM721.021 111.32L605.979 111.32L548.293 211.236L605.869 310.961H721.131L778.707 211.236L721.021 111.32ZM721.131 319.32L778.762 419.14L721.131 518.961H605.869L548.238 419.14L605.869 319.32H721.131ZM541.131 423L598.762 522.82L541.131 622.64H425.869L368.238 522.82L425.869 423H541.131Z" fill="currentColor"/>
</svg>