<svg width="583" height="153" viewBox="0 0 583 153" fill="none" xmlns="http://www.w3.org/2000/svg">
<g clip-path="url(#clip0_321_90)">
<path d="M200.3 88.68C200.3 81.69 203.06 75.48 208.58 70.05C214.1 64.61 220.43 61.9 227.58 61.9C234.73 61.9 241.36 64.58 246.86 69.93C252.36 75.28 255.1 81.53 255.1 88.68C255.1 95.83 252.4 102.21 247.01 107.69C241.62 113.16 235.39 115.9 228.32 115.9C220.76 115.9 214.19 113.2 208.64 107.78C203.08 102.37 200.3 96 200.3 88.68ZM244.7 88.71C244.7 84.36 243.05 80.59 239.74 77.37C236.43 74.16 232.51 72.56 227.96 72.56C223.41 72.56 219.27 74.18 215.9 77.43C212.53 80.68 210.85 84.56 210.85 89.08C210.85 93.6 212.55 97.16 215.96 100.39C219.37 103.62 223.37 105.23 227.96 105.23C232.55 105.23 236.33 103.57 239.68 100.26C243.03 96.95 244.7 93.1 244.7 88.7V88.71Z" fill="white"/>
<path d="M264.66 114.48V63.33H275.2V71.82C278.3 68.39 281.11 65.88 283.63 64.29C286.15 62.7 288.96 61.9 292.06 61.9C296.69 61.9 300.65 63.43 303.93 66.49C307.22 69.55 308.86 73.23 308.86 77.53V114.48H298.07V80.69C298.07 77.92 297.17 75.63 295.37 73.81C293.57 71.99 291.29 71.08 288.52 71.08C284.92 71.08 281.83 72.6 279.22 75.63C276.61 78.67 275.31 82.34 275.31 86.64V114.48H264.65H264.66Z" fill="white"/>
<path d="M325.73 48.45H336.52V63.33H347.18V73.19H336.52V114.48H325.73V73.19H317.23V63.2099H325.73V48.45Z" fill="white"/>
<path d="M368.69 63.33V73.87C371.09 69.66 373.43 66.61 375.73 64.73C378.03 62.85 381.01 61.91 384.69 61.91C385.72 61.91 387.21 62.16 389.15 62.65L385.86 73.44C383.79 73.03 382.43 72.82 381.77 72.82C378.13 72.82 375.09 74.09 372.63 76.63C370.17 79.17 368.94 82.34 368.94 86.15V114.49H358.15V63.34H368.69V63.33Z" fill="white"/>
<path d="M440.8 63.33H451.59V114.48H440.8V104.31C435.55 112.04 429.04 115.9 421.27 115.9C414.53 115.9 408.78 113.26 404 107.97C399.23 102.68 396.84 96.25 396.84 88.69C396.84 81.54 399.25 75.29 404.06 69.94C408.87 64.59 414.53 61.91 421.02 61.91C425.03 61.91 428.83 63 432.42 65.2C436.02 67.39 438.81 70.24 440.79 73.76V63.34L440.8 63.33ZM442.29 89.05C442.29 84.38 440.61 80.38 437.26 77.05C433.9 73.72 429.89 72.06 425.21 72.06C420.53 72.06 416.68 73.71 413.28 77.02C409.89 80.33 408.19 84.21 408.19 88.67C408.19 93.51 409.84 97.62 413.16 101.01C416.47 104.4 420.49 106.09 425.21 106.09C429.93 106.09 433.9 104.41 437.26 101.04C440.61 97.67 442.29 93.67 442.29 89.04V89.05Z" fill="white"/>
<path d="M506.15 98.85V111.19C500.65 114.33 495.32 115.9 490.15 115.9C483.08 115.9 476.89 113.25 471.58 107.93C466.27 102.62 463.61 96.47 463.61 89.48C463.61 81.55 466.25 74.96 471.54 69.74C476.83 64.51 483.47 61.9 491.44 61.9C496.19 61.9 501.09 63.14 506.14 65.62V77.65C500.72 74.18 495.6 72.44 490.76 72.44C486.3 72.44 482.39 74.02 479.04 77.15C475.69 80.29 474.02 83.97 474.02 88.19C474.02 92.94 475.59 96.94 478.73 100.19C481.87 103.44 485.72 105.06 490.26 105.06C494.8 105.06 500.18 102.99 506.13 98.86L506.15 98.85Z" fill="white"/>
<path d="M520.1 48.45H530.89V63.33H541.55V73.19H530.89V114.48H520.1V73.19H511.61V63.2099H520.1V48.45Z" fill="white"/>
<path d="M581.91 69.4L574.72 75.72C572.86 74.4 571.25 73.4 569.88 72.72C568.51 72.04 566.9 71.7 565.04 71.7C560.66 71.7 558.47 73.31 558.47 76.53C558.47 78.85 561.25 81.1 566.81 83.27C572.37 85.45 576.37 87.84 578.81 90.45C581.25 93.05 582.47 96.18 582.47 99.86C582.47 104.15 580.71 107.9 577.2 111.1C573.69 114.3 569.55 115.9 564.8 115.9C557.57 115.9 551.64 112.55 547.01 105.86L555.5 101.77C558.48 104.66 561.58 106.11 564.8 106.11C567.03 106.11 568.99 105.51 570.66 104.29C572.33 103.07 573.17 101.65 573.17 100.04C573.17 97.19 570.24 94.62 564.37 92.34C558.5 90.06 554.44 87.76 552.19 85.42C549.94 83.09 548.81 80.21 548.81 76.78C548.81 72.53 550.41 68.98 553.61 66.15C556.82 63.32 560.83 61.91 565.67 61.91C570.51 61.91 575.92 64.41 581.92 69.41L581.91 69.4Z" fill="white"/>
<path d="M176.54 57.74C182.14 57.74 188.39 59.41 195.11 62.7C195.38 62.83 195.69 62.81 195.94 62.66C196.19 62.5 196.34 62.23 196.34 61.93V52.08C196.34 51.74 196.13 51.42 195.82 51.29C189.08 48.46 182.46 47.02 176.14 47.02C166.26 47.02 157.69 50.43 150.67 57.15C143.64 63.88 140.08 72.09 140.08 81.55C140.08 91.01 143.7 99.51 150.84 106.32C157.97 113.13 166.68 116.58 176.73 116.58C183.57 116.58 190.02 115 195.88 111.88C196.16 111.73 196.33 111.44 196.33 111.12V101.17C196.33 100.87 196.17 100.58 195.91 100.43C195.65 100.27 195.32 100.27 195.06 100.43C188.89 103.9 182.97 105.66 177.48 105.66C169.93 105.66 163.57 103.34 158.58 98.77C153.61 94.22 151.08 88.46 151.08 81.65C151.08 74.84 153.55 69.25 158.41 64.66C163.29 60.06 169.38 57.72 176.52 57.72L176.54 57.74Z" fill="white"/>
<path d="M121.13 59.01C121.13 57.25 121.78 55.72 123.09 54.43C124.4 53.14 125.95 52.49 127.75 52.49C129.55 52.49 131.04 53.14 132.33 54.43C133.62 55.72 134.27 57.25 134.27 59.01C134.27 60.77 133.62 62.35 132.33 63.62C131.04 64.89 129.51 65.53 127.75 65.53C125.99 65.53 124.4 64.89 123.09 63.62C121.78 62.34 121.13 60.81 121.13 59.01ZM123.53 72.3H131.97V112.76H123.53V72.3Z" fill="white"/>
<path d="M18.2695 35.85L70.1095 100.25L124.46 153L77.4095 92.26L18.2695 35.85Z" fill="white"/>
<path d="M75.9427 55.2999C77.4778 48.7959 73.4497 42.279 66.9458 40.744C60.4418 39.2089 53.9249 43.237 52.3898 49.7409C50.8548 56.2448 54.8828 62.7618 61.3868 64.2968C67.8907 65.8319 74.4076 61.8038 75.9427 55.2999Z" fill="white"/>
<path d="M60.75 0C60.75 0 103.22 40.19 72.85 91.12C72.85 91.12 52.93 129.91 0 126.97C0 126.97 46.81 142.27 79.24 95.68C79.24 95.68 113.27 44.98 60.74 0H60.75Z" fill="white"/>
</g>
<defs>
<clipPath id="clip0_321_90">
<rect width="582.47" height="153" fill="white"/>
</clipPath>
</defs>
</svg>
