<svg width="781" height="244" viewBox="0 0 781 244" fill="none" xmlns="http://www.w3.org/2000/svg">
<path d="M1.40436 135.673V139.095C1.40436 139.095 7.21157 138.685 8.19098 139.401C10.6148 141.173 11.055 142.896 11.055 149.601V186.818C11.055 190.757 7.65675 192.179 5.4605 192.179H1.40436V195.463H29.4758V192.179H26.6365C24.5788 192.179 20.8392 190.713 20.8392 185.504V133.871L1.39941 135.678L1.40436 135.673Z" fill="white"/>
<path d="M173.306 96.7439C148.777 96.7439 128.892 119.42 128.892 147.394C128.892 175.368 148.777 198.045 173.306 198.045C197.836 198.045 217.721 175.368 217.721 147.394C217.721 119.42 197.836 96.7439 173.306 96.7439ZM173.306 194.051C155.692 194.051 141.411 173.161 141.411 147.394C141.411 121.627 155.692 100.738 173.306 100.738C190.921 100.738 205.201 121.627 205.201 147.394C205.201 173.161 190.921 194.051 173.306 194.051Z" fill="white"/>
<path d="M113.591 170.51C108.205 185.114 96.6248 192.179 84.486 192.179C66.8715 192.179 53.7435 173.161 53.7435 147.394C53.7435 115.89 66.8715 100.738 84.486 100.738C92.8357 100.738 100.434 105.438 106.117 113.12C109.644 118.744 110.905 126.48 110.905 126.48H113.947V97.993H111.069C111.069 97.993 108.338 103.202 100.211 99.9629C95.2744 97.8005 90.0904 96.7439 84.486 96.7439C59.9563 96.7439 40.0713 119.42 40.0713 147.394C40.0713 175.368 57.5869 198.045 82.1166 198.045C97.7971 198.045 111.479 187.227 116.371 173.191L113.591 170.51Z" fill="white"/>
<path d="M391.913 170.51C386.526 185.114 374.946 192.179 362.807 192.179C345.193 192.179 332.065 173.161 332.065 147.394C332.065 115.89 345.193 100.738 362.807 100.738C371.157 100.738 378.755 105.438 384.438 113.12C387.965 118.744 389.227 126.48 389.227 126.48H392.269V97.993H389.39C389.39 97.993 386.659 103.202 378.532 99.9629C373.596 97.8005 368.412 96.7439 362.807 96.7439C338.278 96.7439 318.393 119.42 318.393 147.394C318.393 175.368 335.908 198.045 360.438 198.045C376.118 198.045 389.8 187.227 394.693 173.191L391.913 170.51Z" fill="white"/>
<path d="M486.623 102.57H489.808V98.9014H459.704V102.57H462.889C466.149 102.57 468.79 106.687 468.79 109.941V144.674H425.469V109.941C425.469 106.687 428.11 102.57 431.37 102.57H434.556V98.9014H404.451V102.57H407.637C410.896 102.57 413.538 106.687 413.538 109.941V184.917C413.538 188.654 410.501 192.179 406.756 192.179H404.456V195.848H434.561V192.179H432.26C428.516 192.179 425.479 188.654 425.479 184.917V149.196H468.8V184.917C468.8 188.654 465.763 192.179 462.019 192.179H459.719V195.848H489.823V192.179H487.523C483.778 192.179 480.741 188.654 480.741 184.917V109.941C480.741 106.687 483.383 102.57 486.642 102.57H486.623Z" fill="white"/>
<path d="M297.799 186.581L272.706 97.7166H263.273L238.822 184.65C237.566 189.118 233.485 192.204 228.84 192.204H228.519V195.843H250.451V192.204H249.126C244.926 192.204 241.884 188.2 243.017 184.162L250.892 156.158H277.82L286.017 185.544C286.952 188.891 284.429 192.204 280.952 192.204H279.181V195.843H307.801V192.204H305.234C301.771 192.204 298.734 189.908 297.794 186.581H297.799ZM252.371 150.924L264.415 108.094L276.366 150.924H252.371Z" fill="white"/>
<path d="M15.9327 126.732C24.7321 126.732 31.8654 119.612 31.8654 110.83C31.8654 102.047 24.7321 94.927 15.9327 94.927C7.13332 94.927 0 102.047 0 110.83C0 119.612 7.13332 126.732 15.9327 126.732Z" fill="white"/>
<path d="M615.242 54.6051C630.349 54.6051 642.596 42.3814 642.596 27.3026C642.596 12.2238 630.349 0 615.242 0C600.135 0 587.888 12.2238 587.888 27.3026C587.888 42.3814 600.135 54.6051 615.242 54.6051Z" fill="white"/>
<path d="M636.003 68.1873C636.285 90.0392 637.769 206.522 637.769 216.041C637.769 223.056 642.023 229.119 644.847 232.373C672.597 216.525 691.295 186.689 691.295 152.494C691.295 114.779 668.546 82.3767 636.003 68.1873Z" fill="white"/>
<path d="M600.759 77.6322C611.676 72.4581 620.965 66.4001 624.453 64.0352C616.415 61.7493 607.931 60.5249 599.161 60.5249C548.276 60.5249 507.022 101.701 507.022 152.49C507.022 200.163 543.364 239.364 589.906 243.995C590.238 243.121 590.836 242.228 591.875 241.482C595.189 239.112 608.258 235.582 607.926 216.535C607.595 197.492 606.017 117.85 605.196 105.7C604.375 93.5496 595.921 91.5254 591.212 91.7426C584.851 92.0389 580.191 92.0734 580.686 89.1161C581.181 86.1587 586.914 84.1838 600.754 77.6223L600.759 77.6322Z" fill="white"/>
<path d="M745.593 129.927V127.216C745.593 127.216 747.977 127.379 749.54 127.216C751.103 127.053 752.087 127.053 752.335 124.674C752.582 122.294 752.335 83.6259 752.335 83.6259C752.335 83.6259 742.58 83.4976 739.256 83.6259C737.119 83.7099 737.198 90.6022 737.198 90.6022H734.32L734.156 79.4392C734.156 79.4392 734.651 79.4392 737.198 79.5231H777.953C780.5 79.4392 780.995 79.4392 780.995 79.4392L780.832 90.6022H777.953C777.953 90.6022 778.037 83.7049 775.895 83.6259C772.571 83.4976 762.816 83.6259 762.816 83.6259C762.816 83.6259 762.569 122.289 762.816 124.674C763.064 127.053 764.048 127.053 765.611 127.216C767.174 127.379 769.558 127.216 769.558 127.216V129.927H745.583H745.593Z" fill="white"/>
<path d="M691.641 94.2162C691.859 85.1071 698.057 78.042 710.478 78.042C722.898 78.042 725.94 81.0784 725.94 81.0784L725.035 91.6686H722.488C722.488 91.6686 722.166 90.6022 721.83 88.1385C721.543 86.0205 719.609 81.6511 710.478 81.6511C701.346 81.6511 698.324 91.3575 701.678 95.8504C704.433 99.5434 710.067 98.5164 718.372 100.2C726.677 101.884 728.325 105.493 728.735 113.743C729.19 122.842 719.525 129.917 707.104 129.917C694.683 129.917 691.641 126.88 691.641 126.88L692.136 114.468H695.425C695.425 114.468 695.178 117.687 695.262 119.82C695.346 121.953 697.978 126.155 707.109 126.308C721.914 126.555 720.974 113.17 716.122 110.583C712.58 108.697 701.673 108.968 696.123 104.332C693.476 102.121 691.523 99.3854 691.646 94.2112L691.641 94.2162Z" fill="white"/>
</svg>
