<svg width="496" height="290" viewBox="0 0 496 290" fill="none" xmlns="http://www.w3.org/2000/svg">
<g clip-path="url(#clip0_326_93)">
<path d="M198.1 4.23C238.24 4.23 274.47 21.19 300.09 48.28H305.86C279.35 18.68 240.87 0 198.1 0C172.68 0 148.78 6.62 127.99 18.18V23.06C148.64 11.11 172.57 4.23 198.1 4.23Z" fill="white"/>
<path d="M198.1 285.06C130.68 285.06 74.2302 237.29 60.7602 173.83H56.4102C69.9502 239.65 128.33 289.3 198.1 289.3C228.89 289.3 257.45 279.6 280.94 263.13H273.32C251.56 276.99 225.76 285.07 198.1 285.07" fill="white"/>
<path d="M142.06 253.93C78.63 261.2 19.42 228.2 9.8 180.21C5.04 156.42 13.37 133.42 30.7 115.37V108.29C7.41 129.07 -4.35 157.05 1.48 186.1C12.16 239.42 77.95 276.09 148.43 268.01C176.08 264.84 200.33 255.23 218.96 241.52L201.89 232.66C185.65 243.62 165.19 251.27 142.07 253.93" fill="white"/>
<path d="M56.5 124.83H66.97V75.0701H56.5V66.3701H93.31C103.64 66.3701 122.97 68.4301 122.97 87.0001C122.97 104.33 106.53 108.66 93.31 108.66H80.21V124.83H91.46V133.82H56.5V124.83ZM80.2 99.4301H92.57C100.38 99.4301 109.81 97.4101 109.81 87.7201C109.81 76.0701 99.58 75.0701 92.08 75.0701H80.21V99.4301H80.2Z" fill="white"/>
<path d="M219.73 124.83H230.2V75.0701H219.73V66.3701H256.52C266.85 66.3701 286.19 68.4301 286.19 87.0001C286.19 104.33 269.76 108.66 256.52 108.66H243.43V124.83H254.68V133.82H219.73V124.83ZM243.44 99.4301H255.79C263.62 99.4301 273.05 97.4101 273.05 87.7201C273.05 76.0701 262.81 75.0701 255.31 75.0701H243.45V99.4301H243.44Z" fill="white"/>
<path d="M128.38 99.9401C128.38 79.8101 146.42 65.0801 173.55 65.0801C200.68 65.0801 217.25 79.8101 217.25 99.9401C217.25 120.07 200.68 134.8 173.55 134.8C146.42 134.8 128.38 120.08 128.38 99.9401ZM202.78 99.9401C202.78 85.6301 190.85 74.7801 173.55 74.7801C156.25 74.7801 142.86 85.6301 142.86 99.9401C142.86 114.25 156.24 125.09 173.55 125.09C190.86 125.09 202.78 114.25 202.78 99.9401Z" fill="white"/>
<path d="M406.25 99.9401C406.25 79.8101 424.29 65.0801 451.41 65.0801C478.53 65.0801 495.11 79.8101 495.11 99.9401C495.11 120.07 478.55 134.8 451.41 134.8C424.27 134.8 406.25 120.08 406.25 99.9401ZM480.65 99.9401C480.65 85.6301 468.72 74.7801 451.41 74.7801C434.1 74.7801 420.72 85.6301 420.72 99.9401C420.72 114.25 434.11 125.09 451.41 125.09C468.71 125.09 480.65 114.25 480.65 99.9401Z" fill="white"/>
<path d="M350.93 111.72V124.75H314.63L360.49 74.7701V66.3701H300.35V87.2301H311.66V75.0801H344.11L298.51 124.8H282.78L270.73 105.37C268.96 105.28 261.25 106.58 258.52 107.09L274.57 133.84H362.34V111.74H350.92L350.93 111.72Z" fill="white"/>
<path d="M371.08 124.87H380.75V75.0701H371.08V66.3701H403.44V75.0701H393.78V124.87H403.57V133.82H371.08V124.87Z" fill="white"/>
<path d="M56.5 124.83H66.97V75.0701H56.5V66.3701H93.31C103.64 66.3701 122.97 68.4301 122.97 87.0001C122.97 104.33 106.53 108.66 93.31 108.66H80.21V124.83H91.46V133.82H56.5V124.83ZM80.2 99.4301H92.57C100.38 99.4301 109.81 97.4101 109.81 87.7201C109.81 76.0701 99.58 75.0701 92.08 75.0701H80.21V99.4301H80.2Z" fill="white"/>
<path d="M219.73 124.83H230.2V75.0701H219.73V66.3701H256.52C266.85 66.3701 286.19 68.4301 286.19 87.0001C286.19 104.33 269.76 108.66 256.52 108.66H243.43V124.83H254.68V133.82H219.73V124.83ZM243.44 99.4301H255.79C263.62 99.4301 273.05 97.4101 273.05 87.7201C273.05 76.0701 262.81 75.0701 255.31 75.0701H243.45V99.4301H243.44Z" fill="white"/>
<path d="M128.38 99.9401C128.38 79.8101 146.42 65.0801 173.55 65.0801C200.68 65.0801 217.25 79.8101 217.25 99.9401C217.25 120.07 200.68 134.8 173.55 134.8C146.42 134.8 128.38 120.08 128.38 99.9401ZM202.78 99.9401C202.78 85.6301 190.85 74.7801 173.55 74.7801C156.25 74.7801 142.86 85.6301 142.86 99.9401C142.86 114.25 156.24 125.09 173.55 125.09C190.86 125.09 202.78 114.25 202.78 99.9401Z" fill="white"/>
<path d="M406.25 99.9401C406.25 79.8101 424.29 65.0801 451.41 65.0801C478.53 65.0801 495.11 79.8101 495.11 99.9401C495.11 120.07 478.55 134.8 451.41 134.8C424.27 134.8 406.25 120.08 406.25 99.9401ZM480.65 99.9401C480.65 85.6301 468.72 74.7801 451.41 74.7801C434.1 74.7801 420.72 85.6301 420.72 99.9401C420.72 114.25 434.11 125.09 451.41 125.09C468.71 125.09 480.65 114.25 480.65 99.9401Z" fill="white"/>
<path d="M350.93 111.72V124.75H314.63L360.49 74.7701V66.3701H300.35V87.2301H311.66V75.0801H344.11L298.51 124.8H282.78L270.73 105.37C268.96 105.28 261.25 106.58 258.52 107.09L274.57 133.84H362.34V111.74H350.92L350.93 111.72Z" fill="white"/>
<path d="M371.08 124.87H380.75V75.0701H371.08V66.3701H403.44V75.0701H393.78V124.87H403.57V133.82H371.08V124.87Z" fill="white"/>
<path d="M495.17 150.41H56.6104V154.41H495.17V150.41Z" fill="white"/>
<path d="M199.84 164.59V201.53H212.52V207.74H193.24V164.59H199.84Z" fill="white"/>
<path d="M219.44 165.17C221.77 165.17 223.52 166.92 223.52 169.25C223.52 171.58 221.77 173.33 219.44 173.33C217.11 173.33 215.36 171.58 215.36 169.25C215.36 166.92 217.11 165.17 219.44 165.17ZM222.61 180.5V207.74H216.27V180.5H222.61Z" fill="white"/>
<path d="M237.62 186.32V207.74H231.28V186.32H228.56V180.5H231.28V171.05C231.28 166.84 232.38 164.19 233.93 162.51C235.1 161.28 237.1 159.86 240.4 159.86C241.76 159.86 243.12 160.05 244.48 160.64V166.92C243.19 166.14 242.35 165.95 241.44 165.95C240.66 165.95 239.5 166.08 238.66 166.99C238.34 167.31 237.62 168.28 237.62 170.23V180.52H244.48V186.34H237.62V186.32Z" fill="white"/>
<path d="M271.2 201.53C270.03 203.6 268.35 205.41 266.61 206.51C264.41 207.93 261.5 208.58 258.59 208.58C254.97 208.58 251.99 207.67 249.4 205.09C246.81 202.51 245.39 198.75 245.39 194.67C245.39 190.59 246.88 186.39 249.72 183.48C251.98 181.22 254.96 179.79 258.84 179.79C263.17 179.79 265.96 181.67 267.57 183.35C271.06 186.97 271.39 192.02 271.39 194.87V195.65H251.85C251.98 197.59 252.82 199.79 254.18 201.15C255.67 202.64 257.48 202.9 259.03 202.9C260.78 202.9 262.07 202.51 263.36 201.54C264.46 200.7 265.3 199.6 265.88 198.56L271.19 201.54L271.2 201.53ZM264.92 190.46C264.66 188.97 263.95 187.68 262.98 186.77C262.14 185.99 260.78 185.22 258.71 185.22C256.51 185.22 255.09 186.13 254.25 186.97C253.34 187.81 252.63 189.1 252.31 190.46H264.93H264.92Z" fill="white"/>
<path d="M310.27 174.16C309.88 173.19 309.3 172.28 308.33 171.44C306.97 170.34 305.55 169.89 303.67 169.89C299.66 169.89 297.59 172.28 297.59 175.07C297.59 176.36 298.04 178.63 302.25 180.31L306.58 182.06C314.54 185.29 316.74 189.82 316.74 194.74C316.74 202.96 310.92 208.58 302.83 208.58C297.85 208.58 294.87 206.7 292.67 204.25C290.34 201.66 289.31 198.82 289.05 195.84L295.58 194.42C295.58 196.56 296.36 198.56 297.39 199.92C298.62 201.47 300.43 202.51 303.02 202.51C307.03 202.51 310.14 199.6 310.14 195.26C310.14 190.92 306.78 189.05 303.93 187.88L299.79 186.13C296.23 184.64 290.99 181.67 290.99 175.2C290.99 169.38 295.52 163.81 303.61 163.81C308.27 163.81 310.92 165.56 312.28 166.72C313.44 167.76 314.67 169.24 315.58 171.05L310.27 174.16Z" fill="white"/>
<path d="M342.36 188.85C339.45 186 336.6 185.49 334.66 185.49C331.68 185.49 329.81 186.72 328.64 187.88C327.47 189.05 326.31 191.12 326.31 194.16C326.31 197.2 327.54 199.46 328.77 200.69C330.19 202.05 332.2 202.89 334.53 202.89C337.12 202.89 340.16 201.85 342.36 199.4V206.45C340.81 207.42 338.28 208.58 334.08 208.58C329.55 208.58 326.32 207.29 323.73 204.57C321.79 202.56 319.85 199.33 319.85 194.35C319.85 189.37 321.98 185.81 323.99 183.81C326.12 181.67 329.55 179.8 334.92 179.8C336.99 179.8 339.45 180.12 342.36 181.74V188.86V188.85Z" fill="white"/>
<path d="M350.32 165.17C352.65 165.17 354.4 166.92 354.4 169.25C354.4 171.58 352.65 173.33 350.32 173.33C347.99 173.33 346.24 171.58 346.24 169.25C346.24 166.92 347.99 165.17 350.32 165.17ZM353.49 180.5V207.74H347.15V180.5H353.49Z" fill="white"/>
<path d="M384.61 201.53C383.44 203.6 381.76 205.41 380.02 206.51C377.82 207.93 374.91 208.58 372 208.58C368.38 208.58 365.4 207.67 362.81 205.09C360.22 202.51 358.8 198.75 358.8 194.67C358.8 190.59 360.29 186.39 363.13 183.48C365.39 181.22 368.37 179.79 372.25 179.79C376.58 179.79 379.37 181.67 380.98 183.35C384.47 186.97 384.8 192.02 384.8 194.87V195.65H365.26C365.39 197.59 366.23 199.79 367.59 201.15C369.08 202.64 370.89 202.9 372.44 202.9C374.19 202.9 375.48 202.51 376.77 201.54C377.87 200.7 378.71 199.6 379.29 198.56L384.6 201.54L384.61 201.53ZM378.34 190.46C378.08 188.97 377.37 187.68 376.4 186.77C375.56 185.99 374.2 185.22 372.13 185.22C369.93 185.22 368.51 186.13 367.67 186.97C366.76 187.81 366.05 189.1 365.73 190.46H378.35H378.34Z" fill="white"/>
<path d="M390.05 180.5H396.39V183.02C399.11 179.98 402.21 179.79 403.77 179.79C408.82 179.79 410.95 182.31 411.79 183.48C412.83 184.97 413.47 186.84 413.47 191.05V207.74H407.13V192.6C407.13 185.68 404.54 185.48 402.15 185.48C399.3 185.48 396.39 185.87 396.39 194.67V207.74H390.05V180.5Z" fill="white"/>
<path d="M439.99 188.85C437.08 186 434.23 185.49 432.29 185.49C429.31 185.49 427.44 186.72 426.27 187.88C425.1 189.05 423.94 191.12 423.94 194.16C423.94 197.2 425.17 199.46 426.4 200.69C427.82 202.05 429.83 202.89 432.16 202.89C434.75 202.89 437.79 201.85 439.99 199.4V206.45C438.44 207.42 435.91 208.58 431.71 208.58C427.18 208.58 423.95 207.29 421.36 204.57C419.42 202.56 417.48 199.33 417.48 194.35C417.48 189.37 419.61 185.81 421.62 183.81C423.75 181.67 427.18 179.8 432.55 179.8C434.62 179.8 437.08 180.12 439.99 181.74V188.86V188.85Z" fill="white"/>
<path d="M469.17 201.53C468 203.6 466.32 205.41 464.58 206.51C462.38 207.93 459.47 208.58 456.56 208.58C452.94 208.58 449.96 207.67 447.37 205.09C444.78 202.51 443.36 198.75 443.36 194.67C443.36 190.59 444.85 186.39 447.69 183.48C449.95 181.22 452.93 179.79 456.81 179.79C461.14 179.79 463.93 181.67 465.54 183.35C469.03 186.97 469.36 192.02 469.36 194.87V195.65H449.82C449.95 197.59 450.79 199.79 452.15 201.15C453.64 202.64 455.45 202.9 457 202.9C458.75 202.9 460.04 202.51 461.33 201.54C462.43 200.7 463.27 199.6 463.85 198.56L469.16 201.54L469.17 201.53ZM462.9 190.46C462.64 188.97 461.93 187.68 460.96 186.77C460.12 185.99 458.76 185.22 456.69 185.22C454.49 185.22 453.07 186.13 452.23 186.97C451.32 187.81 450.61 189.1 450.29 190.46H462.91H462.9Z" fill="white"/>
<path d="M486.58 187.68C485.93 186.64 484.7 185.35 482.7 185.35C481.79 185.35 481.15 185.67 480.76 186.06C480.44 186.38 480.18 186.9 480.18 187.48C480.18 188.19 480.5 188.64 481.09 189.03C481.48 189.29 481.87 189.42 483.22 190.13L486.46 191.75C487.88 192.46 489.24 193.17 490.28 194.27C491.77 195.76 492.29 197.44 492.29 199.32C492.29 201.78 491.38 203.91 489.9 205.53C487.77 207.86 485.11 208.57 482.27 208.57C480.52 208.57 478.32 208.31 476.38 206.82C474.83 205.66 473.53 203.78 472.89 201.84L478.07 199.38C478.39 200.29 478.98 201.45 479.56 201.97C479.95 202.36 480.85 203.01 482.34 203.01C483.31 203.01 484.35 202.69 484.93 202.1C485.45 201.58 485.84 200.74 485.84 199.97C485.84 199.2 485.58 198.55 485 197.9C484.22 197.12 483.32 196.67 482.28 196.22L479.95 195.12C478.72 194.54 477.23 193.83 476.2 192.79C474.78 191.43 474.26 189.94 474.26 188.2C474.26 186 475.1 183.87 476.52 182.38C477.75 181.09 479.82 179.79 483.18 179.79C485.12 179.79 486.67 180.18 488.23 181.21C489.14 181.79 490.36 182.83 491.34 184.57L486.62 187.68H486.58Z" fill="white"/>
</g>
<defs>
<clipPath id="clip0_326_93">
<rect width="495.17" height="289.3" fill="white"/>
</clipPath>
</defs>
</svg>
