<svg class="{{ class }}" viewBox="0 0 32 31" fill="none" xmlns="http://www.w3.org/2000/svg">
    <path d="M26.5785 0H20.2904V2.458H26.7327C27.9442 2.458 28.922 3.44533 28.922 4.64571V20.3572C28.922 21.5687 27.9347 22.5465 26.7327 22.5465H24.8471L23.6689 19.9422C23.1077 18.6957 21.8612 17.888 20.4923 17.888H11.0149C9.69366 17.888 8.47261 18.6496 7.90184 19.8357L6.58062 22.5449H4.6473C3.43579 22.5449 2.458 21.5575 2.458 20.3588V4.64412C2.458 3.4342 3.44533 2.458 4.6473 2.458H11.0896V0H4.80947C2.16386 0 0 2.15273 0 4.80788V20.1966C0 22.8422 2.15273 25.0045 4.80947 25.0045H13.6032V31L28.1827 24.7342C28.3623 24.6674 28.542 24.5879 28.7105 24.51L28.7328 24.4989C30.3704 23.6689 31.38 22.0329 31.38 20.2173V4.80788C31.38 2.16227 29.2273 0 26.5801 0H26.5785Z" fill="#F4511E"/>
    <path d="M15.7589 15.1946C17.8449 15.1946 19.5382 13.5014 19.5382 11.4154C19.5382 9.32948 17.8449 7.63623 15.7589 7.63623C13.673 7.63623 11.9797 9.32948 11.9797 11.4154C11.9797 13.5014 13.673 15.1946 15.7589 15.1946Z" fill="#F4511E"/>
</svg>
