<svg width="36" height="36" class="{{ class }}" viewBox="0 0 36 36" fill="none" xmlns="http://www.w3.org/2000/svg">
<path d="M30 24V18C30 14.8174 28.7357 11.7652 26.4853 9.51472C24.2348 7.26428 21.1826 6 18 6C14.8174 6 11.7652 7.26428 9.51472 9.51472C7.26428 11.7652 6 14.8174 6 18V24M30 24V27C30 27.7956 29.6839 28.5587 29.1213 29.1213C28.5587 29.6839 27.7956 30 27 30H24V21H27C27.7956 21 28.5587 21.3161 29.1213 21.8787C29.6839 22.4413 30 23.2044 30 24ZM6 24V27C6 27.7956 6.31607 28.5587 6.87868 29.1213C7.44129 29.6839 8.20435 30 9 30H12V21H9C8.20435 21 7.44129 21.3161 6.87868 21.8787C6.31607 22.4413 6 23.2044 6 24Z" stroke="currentColor" stroke-width="2" stroke-linejoin="round"/>
</svg>
