<svg width="36" height="36" class="{{ class }}" viewBox="0 0 36 36" fill="none" xmlns="http://www.w3.org/2000/svg">
<path d="M12 12V24M12 12C12.7956 12 13.5587 11.6839 14.1213 11.1213C14.6839 10.5587 15 9.79565 15 9C15 8.20435 14.6839 7.44129 14.1213 6.87868C13.5587 6.31607 12.7956 6 12 6C11.2044 6 10.4413 6.31607 9.87868 6.87868C9.31607 7.44129 9 8.20435 9 9C9 9.79565 9.31607 10.5587 9.87868 11.1213C10.4413 11.6839 11.2044 12 12 12ZM12 24C11.2044 24 10.4413 24.3161 9.87868 24.8787C9.31607 25.4413 9 26.2044 9 27C9 27.7956 9.31607 28.5587 9.87868 29.1213C10.4413 29.6839 11.2044 30 12 30C12.7956 30 13.5587 29.6839 14.1213 29.1213C14.6839 28.5587 15 27.7956 15 27C15 26.2044 14.6839 25.4413 14.1213 24.8787C13.5587 24.3161 12.7956 24 12 24ZM21 21C21 20.2044 21.3161 19.4413 21.8787 18.8787C22.4413 18.3161 23.2044 18 24 18C24.7956 18 25.5587 18.3161 26.1213 18.8787C26.6839 19.4413 27 20.2044 27 21C27 21.7956 26.6839 22.5587 26.1213 23.1213C25.5587 23.6839 24.7956 24 24 24C23.2044 24 22.4413 23.6839 21.8787 23.1213C21.3161 22.5587 21 21.7956 21 21ZM21 21H19.5C17.5109 21 15.6032 20.2098 14.1967 18.8033C12.7902 17.3968 12 15.4891 12 13.5V12.75" stroke="currentColor" stroke-width="2" stroke-linecap="round" stroke-linejoin="round"/>
</svg>
